Coordinates
version=1
nRows=14
nColumns=36
inDegrees=yes

Units are S.I. units (second, meters, Newtons, ...)
If the header above contains a line with 'inDegrees', this indicates whether rotational values are in degrees (yes) or radians (no).

endheader
time	pelvis_tilt	pelvis_list	pelvis_rotation	pelvis_tx	pelvis_ty	pelvis_tz	hip_flexion_r	hip_adduction_r	hip_rotation_r	knee_angle_r	knee_angle_r_beta	ankle_angle_r	subtalar_angle_r	mtp_angle_r	hip_flexion_l	hip_adduction_l	hip_rotation_l	knee_angle_l	knee_angle_l_beta	ankle_angle_l	subtalar_angle_l	mtp_angle_l	lumbar_extension	lumbar_bending	lumbar_rotation	arm_flex_r	arm_add_r	arm_rot_r	elbow_flex_r	pro_sup_r	arm_flex_l	arm_add_l	arm_rot_l	elbow_flex_l	pro_sup_l
      0.00000000	     -8.00915064	      2.23398226	    -14.27008048	      0.99216426	      0.91671078	      0.21066194	      7.38896421	      6.81593062	      8.62294929	      4.40388307	      0.07686226	      0.67250581	    -18.26255226	     -6.03245347	     13.12653837	     -5.92691000	      1.38975131	     49.99157199	      0.87251753	    -17.69992641	    -17.95121155	     -6.03245347	     -0.60269551	      2.42842410	     -7.69922963	     38.99843535	     -3.14977421	     53.18410865	    107.16889776	     73.46885677	     45.36993425	      6.75005987	     70.38596302	    107.53908766	     88.30772099
      0.01666670	     -8.39772834	      2.80975030	    -14.30716566	      0.99250204	      0.91595052	      0.21104241	      6.59785457	      6.63673349	      8.74249091	      3.53033708	      0.06161601	      1.66923831	    -15.32075554	     -6.45404406	     13.82035125	     -5.71333926	      0.82608786	     48.35906034	      0.84402483	    -17.29949049	    -18.52245115	     -6.45404406	     -2.06346325	      2.84501196	     -5.44339661	     39.91244156	     -4.99677503	     57.83489138	    111.52282201	     91.22483396	     47.72039630	      6.65969309	     71.09393157	    112.45499889	    103.06233449
      0.03333330	     -7.91222127	      3.30014006	    -14.54883380	      0.98613176	      0.91249462	      0.20819032	      6.00694556	      6.27256789	      8.86088650	      3.64983300	      0.06370160	      2.22017479	    -13.76945447	     -6.79119443	     13.89145416	     -5.23476130	      0.95653047	     47.79807325	      0.83423375	    -13.87776119	    -17.69026239	     -6.79119443	     -2.96370556	      2.42047911	     -4.45327633	     40.55287577	     -3.86015677	     55.15525397	    113.30626460	     97.55297223	     49.49808979	      7.73525514	     69.80600991	    112.79239938	    108.02910741
      0.05000000	     -8.01170565	      4.17651198	    -14.67919853	      0.98533591	      0.91541340	      0.20829610	      5.96723132	      5.64647370	      8.92731389	      3.20605062	      0.05595614	      2.64345468	    -13.56956585	     -6.79501271	     14.62612376	     -4.41814171	      1.08716699	     47.79097750	      0.83410991	    -12.12470677	    -18.38837002	     -6.79501271	     -3.30890723	      1.71998119	     -3.93965603	     40.59080767	     -3.22765656	     55.41193473	    113.28173790	     97.68662566	     49.66656501	      8.03555940	     69.61038890	    112.90020774	    108.02435814
      0.06666670	     -8.17109545	      5.10679590	    -14.95688419	      0.98464620	      0.91481671	      0.20923392	      6.26813212	      4.97839505	      8.83393986	      3.20894498	      0.05600666	      3.53336840	    -12.77442260	     -6.80494670	     15.27858278	     -3.67044000	      0.81263884	     47.89405960	      0.83590903	    -10.85159898	    -18.45728859	     -6.80494670	     -3.48358727	      0.85577322	     -3.10417033	     40.61963023	     -2.95653428	     55.99566025	    112.55846665	     99.83954378	     49.66896755	      8.35371395	     69.47690563	    113.05256846	    109.41262370
      0.08333330	     -8.10787314	      5.65461901	    -15.23486447	      0.98397577	      0.91270739	      0.21015641	      6.27459780	      4.65794349	      8.66721718	      3.27969578	      0.05724149	      3.89676575	    -12.77896896	     -6.85270878	     15.49374442	     -3.31187380	      0.67651253	     48.15251049	      0.84041985	    -10.60737116	    -19.03009070	     -6.85270878	     -3.73798238	      0.41112240	     -2.54651627	     40.24459921	     -2.61467742	     56.23105794	    112.45186621	     99.69196846	     49.29812297	      8.41149889	     68.67960737	    113.86724597	    108.31150973
      0.10000000	     -8.12916056	      6.03121854	    -15.37542057	      0.98345838	      0.91307033	      0.21061989	      6.32567043	      4.46860108	      8.69328959	      3.34867429	      0.05844539	      4.05047652	    -12.97473832	     -6.89152670	     15.71796556	     -3.12680329	      0.52150427	     48.34579424	      0.84379329	    -10.54732778	    -19.48232699	     -6.89152670	     -3.92647419	      0.15485049	     -2.27687689	     40.38431155	     -2.25512958	     56.98259110	    112.93513072	     99.62083933	     49.35234636	      8.59073365	     68.13762870	    114.61435185	    107.64866286
      0.11666670	     -8.18589733	      6.32587967	    -15.43653609	      0.98302487	      0.91367158	      0.21081590	      6.38531165	      4.32208718	      8.82392467	      3.37812655	      0.05895943	      4.05742283	    -12.95834830	     -6.95608153	     15.92842862	     -3.03570343	      0.26749470	     48.51488390	      0.84674446	    -10.47611207	    -19.56131132	     -6.95608153	     -3.95116054	      0.06733388	     -2.24052010	     40.25130740	     -1.68768000	     57.72654459	    112.24291026	    101.30386043	     48.80239761	      8.36252270	     67.44802032	    115.62116934	    107.24958746
      0.13333330	     -8.29051367	      6.54786361	    -15.35489359	      0.98298392	      0.91118191	      0.21149864	      6.60808087	      4.22460890	      8.82731104	      3.39138106	      0.05919077	      4.01982109	    -13.00567186	     -7.04107226	     16.26837267	     -3.03322042	      0.14519512	     48.88754212	      0.85324857	    -10.61939865	    -19.91379721	     -7.04107226	     -3.86554244	     -0.10448463	     -2.14727812	     39.90052991	     -1.36429892	     57.62833775	    112.75764799	    101.75843617	     48.57464652	      8.33770901	     67.13489265	    116.15794499	    106.34302372
      0.15000000	     -8.55612501	      6.76535372	    -15.26479443	      0.98274265	      0.90854785	      0.21128033	      6.98578885	      4.15616308	      8.92019772	      3.53515316	      0.06170006	      4.20968210	    -12.82298431	     -7.06475905	     16.85789573	     -3.11314084	     -0.12425357	     49.46968301	      0.86340885	    -10.72193909	    -20.04463112	     -7.06475905	     -3.66899862	     -0.20213073	     -1.95923835	     39.88505501	     -1.21449406	     57.42499376	    112.89733831	    101.19345505	     48.33484956	      8.35662142	     67.05908140	    116.64410962	    105.55910196
      0.16666670	     -8.81759474	      6.98728042	    -15.16988286	      0.98257992	      0.91137781	      0.21104394	      7.20776165	      4.00816138	      9.14287425	      3.48932112	      0.06090014	      4.23882347	    -12.65987850	     -7.10634497	     17.36491179	     -2.98605210	     -0.27148579	     49.67519056	      0.86699563	    -10.64226046	    -19.95921940	     -7.10634497	     -3.60216799	     -0.20075197	     -1.83628213	     39.54748909	     -1.37252723	     57.40516387	    112.95855510	    100.23503584	     47.78356642	      8.04322872	     67.27517814	    116.89260680	    104.47523208
      0.18333330	     -9.02409763	      7.07947007	    -14.99734245	      0.98209759	      0.90866714	      0.21055330	      7.50165136	      3.95839962	      9.25658670	      3.64450357	      0.06360859	      4.26620055	    -12.64685994	     -7.16169663	     17.78844764	     -2.96857998	     -0.35513311	     49.94283265	      0.87166687	    -10.66592494	    -19.81721020	     -7.16169663	     -3.57438983	     -0.10468612	     -1.82363675	     39.27004146	     -1.34413996	     57.15458395	    113.26759519	     98.47065486	     47.57767876	      8.05700172	     67.27232514	    117.24079137	    102.31998989
      0.20000000	     -9.13779961	      7.13692093	    -14.84203092	      0.97693767	      0.91196875	      0.20688429	      7.79641039	      3.85393824	      9.38319870	      3.75681794	      0.06556884	      4.32240331	    -12.65247423	     -7.16459986	     18.18410779	     -2.93728215	     -0.58810907	     49.87845147	      0.87054320	    -10.88502862	    -19.51277373	     -7.16459986	     -3.96191077	      0.10641397	     -1.86775092	     39.51360629	     -1.65981999	     57.09125091	    113.58157105	     98.65697402	     47.70137640	      7.98572693	     67.25505627	    117.22658905	    102.45068192
      0.21666670	     -9.33295404	      7.19999988	    -14.86693098	      0.97682730	      0.91244710	      0.20697047	      8.21142790	      3.76616279	      9.71086430	      3.97982412	      0.06946103	      4.16233654	    -12.83502519	     -7.21418703	     18.57170979	     -2.97937163	     -0.82175396	     49.84919542	      0.87003259	    -11.11451685	    -19.13624958	     -7.21418703	     -4.16855253	      0.23400352	     -1.22914941	     39.06086199	     -2.15090538	     56.49127573	    114.69891385	    100.33916014	     47.49328105	      8.15740777	     68.05491467	    117.34452425	    103.75880443
